<svg xmlns="http://www.w3.org/2000/svg" height="800" width="1200" viewBox="-55.82025 -28.629 483.7755 171.774"><g fill="#2180c9"><path d="M306.652 13.898C306.652 6.255 300.399 0 292.757 0c-7.646 0-13.898 6.255-13.898 13.898 0 15.287-12.508 27.795-27.796 27.795-7.643 0-13.898 6.254-13.898 13.899 0 7.643 6.255 13.898 13.898 13.898 17.789 0 27.796 15.008 27.796 30.018v1.111c0 7.645 6.252 13.897 13.898 13.897 7.642 0 13.895-6.252 13.895-13.897v-1.111c0-17.233-5.556-32.383-18.347-43.916 11.955-10.008 18.347-25.155 18.347-41.694M118.934 100.62c0 7.644 6.25 13.896 13.897 13.896 7.641 0 13.897-6.252 13.897-13.897V55.592c0-15.29 12.505-27.797 27.793-27.797 15.29 0 27.796 12.507 27.796 27.797v45.027c0 7.645 6.255 13.897 13.898 13.897 7.645 0 13.898-6.252 13.898-13.897V55.592C230.113 24.738 205.236 0 174.521 0c-30.714 0-55.587 24.738-55.587 55.592v45.027m200.036.001c0 7.644 6.253 13.896 13.895 13.896 7.644 0 13.9-6.252 13.9-13.897V13.898c0-7.643-6.256-13.898-13.9-13.898-7.642 0-13.896 6.255-13.896 13.898v86.721M55.592 83.385c-15.287 0-27.796-12.507-27.796-27.793 0-15.29 12.509-27.797 27.796-27.797 15.286 0 27.794 12.507 27.794 27.797 0 15.286-12.508 27.793-27.794 27.793zm0-83.385C24.878 0 0 24.878 0 55.592c0 30.712 24.878 55.59 55.592 55.59 10.282 0 19.873-2.78 28.211-7.644 1.39 6.252 6.81 10.978 13.481 10.978 7.643 0 13.898-6.252 13.898-13.897V55.592C111.182 24.878 86.305 0 55.592 0m309.34 17.2c-3.972 0-7.203-3.23-7.203-7.202a7.21 7.21 0 017.203-7.203 7.21 7.21 0 017.203 7.203c0 3.971-3.231 7.202-7.203 7.202m0-12.941a5.746 5.746 0 00-5.739 5.739 5.745 5.745 0 005.739 5.739 5.745 5.745 0 005.739-5.74 5.745 5.745 0 00-5.739-5.738"/><path d="M364.533 9.41c.41 0 .699-.076.874-.227.18-.151.269-.402.269-.749 0-.342-.09-.59-.27-.736-.174-.149-.463-.224-.873-.224h-.818v1.935zm-.818 1.342v2.853h-1.942V6.068h2.968c.994 0 1.72.165 2.182.498.464.335.696.861.696 1.58 0 .499-.122.91-.364 1.228-.239.32-.6.555-1.086.708.267.06.506.198.714.413.212.212.424.535.641.97l1.055 2.14h-2.07l-.921-1.874c-.184-.375-.372-.635-.564-.771-.188-.14-.44-.208-.757-.208h-.552"/></g></svg>